<?xml version="1.0" encoding="UTF-8" standalone="no"?>
<!DOCTYPE svg PUBLIC "-//W3C//DTD SVG 1.1//EN"
 "http://www.w3.org/Graphics/SVG/1.1/DTD/svg11.dtd">
<!-- Generated by graphviz version 2.40.1 (20161225.0304)
 -->
<!-- Title: Auction Pages: 1 -->
<svg width="751pt" height="516pt"
 viewBox="0.00 0.00 751.23 515.80" xmlns="http://www.w3.org/2000/svg" xmlns:xlink="http://www.w3.org/1999/xlink">
<g id="graph0" class="graph" transform="scale(1 1) rotate(0) translate(4 511.8)">
<title>Auction</title>
<polygon fill="#ffffff" stroke="transparent" points="-4,4 -4,-511.8 747.232,-511.8 747.232,4 -4,4"/>
<g id="clust1" class="cluster">
<title>cluster_info</title>
<polygon fill="#ffffff" stroke="#1976d2" stroke-width="2.5" stroke-dasharray="5,2" points="282.559,-220 282.559,-296.8 604.559,-296.8 604.559,-220 282.559,-220"/>
<text text-anchor="middle" x="443.559" y="-280.2" font-family="Helvetica,sans-Serif" font-weight="bold" font-size="14.00" fill="#1976d2">Ensemble d&quot;information de J2 (incertitude sur v1)</text>
</g>
<!-- N -->
<g id="node1" class="node">
<title>N</title>
<ellipse fill="#0d47a1" stroke="#1565c0" stroke-width="1.5" cx="443.559" cy="-485.8" rx="18" ry="18"/>
<ellipse fill="none" stroke="#1565c0" stroke-width="1.5" cx="443.559" cy="-485.8" rx="22" ry="22"/>
<text text-anchor="middle" x="443.559" y="-482.2" font-family="Helvetica,sans-Serif" font-size="12.00" fill="#ffffff">N</text>
</g>
<!-- J1_H0 -->
<g id="node2" class="node">
<title>J1_H0</title>
<ellipse fill="#e3f2fd" stroke="#1565c0" stroke-width="1.5" cx="357.559" cy="-367.8" rx="18" ry="18"/>
<text text-anchor="middle" x="357.559" y="-364.2" font-family="Helvetica,sans-Serif" font-size="12.00" fill="#0d47a1">1</text>
</g>
<!-- N&#45;&gt;J1_H0 -->
<g id="edge1" class="edge">
<title>N&#45;&gt;J1_H0</title>
<path fill="none" stroke="#1976d2" stroke-width="1.6" d="M425.8501,-472.4258C413.1766,-462.1422 396.4069,-446.9908 385,-430.8 377.2942,-419.8626 371.0737,-406.4175 366.5158,-394.7609"/>
<polygon fill="#1976d2" stroke="#1976d2" stroke-width="1.6" points="369.6904,-393.254 362.943,-385.0856 363.1239,-395.6789 369.6904,-393.254"/>
<text text-anchor="middle" x="387.3385" y="-421.8" font-family="Helvetica,sans-Serif" font-size="10.00" fill="#000000">q</text>
</g>
<!-- J1_B0 -->
<g id="node3" class="node">
<title>J1_B0</title>
<ellipse fill="#e3f2fd" stroke="#1565c0" stroke-width="1.5" cx="530.559" cy="-367.8" rx="18" ry="18"/>
<text text-anchor="middle" x="530.559" y="-364.2" font-family="Helvetica,sans-Serif" font-size="12.00" fill="#0d47a1">1</text>
</g>
<!-- N&#45;&gt;J1_B0 -->
<g id="edge2" class="edge">
<title>N&#45;&gt;J1_B0</title>
<path fill="none" stroke="#1976d2" stroke-width="1.6" d="M456.7724,-467.8783C471.9636,-447.2742 496.9378,-413.4012 513.5639,-390.8508"/>
<polygon fill="#1976d2" stroke="#1976d2" stroke-width="1.6" points="516.584,-392.6525 519.7012,-382.5266 510.9498,-388.4985 516.584,-392.6525"/>
<text text-anchor="middle" x="498.7825" y="-421.8" font-family="Helvetica,sans-Serif" font-size="10.00" fill="#000000">1&#45;q</text>
</g>
<!-- J2_H1 -->
<g id="node4" class="node">
<title>J2_H1</title>
<ellipse fill="#e3f2fd" stroke="#1565c0" stroke-width="1.5" cx="357.559" cy="-246" rx="18" ry="18"/>
<text text-anchor="middle" x="357.559" y="-242.4" font-family="Helvetica,sans-Serif" font-size="12.00" fill="#0d47a1">2</text>
</g>
<!-- J1_H0&#45;&gt;J2_H1 -->
<g id="edge3" class="edge">
<title>J1_H0&#45;&gt;J2_H1</title>
<path fill="none" stroke="#1976d2" stroke-width="1.6" d="M350.6983,-350.6474C347.1681,-340.8979 343.2398,-328.3625 341.458,-316.8 339.1478,-301.809 342.5665,-285.2686 346.839,-271.9474"/>
<polygon fill="#1976d2" stroke="#1976d2" stroke-width="1.6" points="350.1573,-273.0618 350.1919,-262.467 343.5579,-270.7278 350.1573,-273.0618"/>
<text text-anchor="middle" x="363.6095" y="-307.8" font-family="Helvetica,sans-Serif" font-size="10.00" fill="#000000">C (Rester)</text>
</g>
<!-- G_R1_H -->
<g id="node8" class="node">
<title>G_R1_H</title>
<polygon fill="#f8f9fa" stroke="#bdbdbd" stroke-width="1.5" points="224.1771,-264 156.9409,-264 156.9409,-228 224.1771,-228 224.1771,-264"/>
<text text-anchor="middle" x="190.559" y="-243" font-family="Helvetica,sans-Serif" font-size="10.00" fill="#000000">(0 , v2 &#45; p0)</text>
</g>
<!-- J1_H0&#45;&gt;G_R1_H -->
<g id="edge4" class="edge">
<title>J1_H0&#45;&gt;G_R1_H</title>
<path fill="none" stroke="#1976d2" stroke-width="1.6" d="M341.5774,-359.3898C323.9833,-349.879 295.1282,-333.528 272.019,-316.8 252.7605,-302.8594 232.5813,-285.3453 217.1251,-271.2247"/>
<polygon fill="#1976d2" stroke="#1976d2" stroke-width="1.6" points="219.2243,-268.3992 209.5029,-264.1867 214.4756,-273.5421 219.2243,-268.3992"/>
<text text-anchor="middle" x="292.829" y="-307.8" font-family="Helvetica,sans-Serif" font-size="10.00" fill="#000000">R (Sortir)</text>
</g>
<!-- J2_B1 -->
<g id="node5" class="node">
<title>J2_B1</title>
<ellipse fill="#e3f2fd" stroke="#1565c0" stroke-width="1.5" cx="530.559" cy="-246" rx="18" ry="18"/>
<text text-anchor="middle" x="530.559" y="-242.4" font-family="Helvetica,sans-Serif" font-size="12.00" fill="#0d47a1">2</text>
</g>
<!-- J1_B0&#45;&gt;J2_B1 -->
<g id="edge5" class="edge">
<title>J1_B0&#45;&gt;J2_B1</title>
<path fill="none" stroke="#1976d2" stroke-width="1.6" d="M521.6186,-351.8245C516.6646,-342.0431 511.0051,-329.0834 508.458,-316.8 505.2181,-301.1754 510.2937,-284.0875 516.3933,-270.6142"/>
<polygon fill="#1976d2" stroke="#1976d2" stroke-width="1.6" points="519.5989,-272.0282 520.9116,-261.5149 513.3293,-268.9149 519.5989,-272.0282"/>
<text text-anchor="middle" x="530.6095" y="-307.8" font-family="Helvetica,sans-Serif" font-size="10.00" fill="#000000">C (Rester)</text>
</g>
<!-- G_R1_B -->
<g id="node9" class="node">
<title>G_R1_B</title>
<polygon fill="#f8f9fa" stroke="#bdbdbd" stroke-width="1.5" points="731.1771,-264 663.9409,-264 663.9409,-228 731.1771,-228 731.1771,-264"/>
<text text-anchor="middle" x="697.559" y="-243" font-family="Helvetica,sans-Serif" font-size="10.00" fill="#000000">(0 , v2 &#45; p0)</text>
</g>
<!-- J1_B0&#45;&gt;G_R1_B -->
<g id="edge6" class="edge">
<title>J1_B0&#45;&gt;G_R1_B</title>
<path fill="none" stroke="#1976d2" stroke-width="1.6" d="M545.6068,-357.7075C565.6686,-344.1657 602.1775,-319.2196 632.559,-296.8 643.9464,-288.3969 656.227,-278.9122 667.0149,-270.433"/>
<polygon fill="#1976d2" stroke="#1976d2" stroke-width="1.6" points="669.255,-273.1237 674.9339,-264.1794 664.9167,-267.6301 669.255,-273.1237"/>
<text text-anchor="middle" x="638.829" y="-307.8" font-family="Helvetica,sans-Serif" font-size="10.00" fill="#000000">R (Sortir)</text>
</g>
<!-- J1_H2 -->
<g id="node6" class="node">
<title>J1_H2</title>
<ellipse fill="#e3f2fd" stroke="#1565c0" stroke-width="1.5" cx="184.559" cy="-132" rx="18" ry="18"/>
<text text-anchor="middle" x="184.559" y="-128.4" font-family="Helvetica,sans-Serif" font-size="12.00" fill="#0d47a1">1</text>
</g>
<!-- J2_H1&#45;&gt;J1_H2 -->
<g id="edge7" class="edge">
<title>J2_H1&#45;&gt;J1_H2</title>
<path fill="none" stroke="#1976d2" stroke-width="1.6" d="M342.509,-236.0827C312.3469,-216.207 244.301,-171.3676 208.1568,-147.55"/>
<polygon fill="#1976d2" stroke="#1976d2" stroke-width="1.6" points="209.9733,-144.5555 199.6974,-141.9756 206.1216,-150.4005 209.9733,-144.5555"/>
<text text-anchor="middle" x="279.1685" y="-186" font-family="Helvetica,sans-Serif" font-size="10.00" fill="#000000">C</text>
</g>
<!-- G_R2_H -->
<g id="node10" class="node">
<title>G_R2_H</title>
<polygon fill="#f8f9fa" stroke="#bdbdbd" stroke-width="1.5" points="397.4551,-150 317.6629,-150 317.6629,-114 397.4551,-114 397.4551,-150"/>
<text text-anchor="middle" x="357.559" y="-129" font-family="Helvetica,sans-Serif" font-size="10.00" fill="#000000">(v1_H &#45; p1 , 0)</text>
</g>
<!-- J2_H1&#45;&gt;G_R2_H -->
<g id="edge8" class="edge">
<title>J2_H1&#45;&gt;G_R2_H</title>
<path fill="none" stroke="#1976d2" stroke-width="1.6" d="M357.559,-227.9364C357.559,-209.7827 357.559,-181.536 357.559,-160.3859"/>
<polygon fill="#1976d2" stroke="#1976d2" stroke-width="1.6" points="361.0591,-160.3566 357.559,-150.3566 354.0591,-160.3567 361.0591,-160.3566"/>
<text text-anchor="middle" x="361.1685" y="-186" font-family="Helvetica,sans-Serif" font-size="10.00" fill="#000000">R</text>
</g>
<!-- J1_B2 -->
<g id="node7" class="node">
<title>J1_B2</title>
<ellipse fill="#e3f2fd" stroke="#1565c0" stroke-width="1.5" cx="530.559" cy="-132" rx="18" ry="18"/>
<text text-anchor="middle" x="530.559" y="-128.4" font-family="Helvetica,sans-Serif" font-size="12.00" fill="#0d47a1">1</text>
</g>
<!-- J2_B1&#45;&gt;J1_B2 -->
<g id="edge9" class="edge">
<title>J2_B1&#45;&gt;J1_B2</title>
<path fill="none" stroke="#1976d2" stroke-width="1.6" d="M530.559,-227.9364C530.559,-209.7827 530.559,-181.536 530.559,-160.3859"/>
<polygon fill="#1976d2" stroke="#1976d2" stroke-width="1.6" points="534.0591,-160.3566 530.559,-150.3566 527.0591,-160.3567 534.0591,-160.3566"/>
<text text-anchor="middle" x="534.1685" y="-186" font-family="Helvetica,sans-Serif" font-size="10.00" fill="#000000">C</text>
</g>
<!-- G_R2_B -->
<g id="node11" class="node">
<title>G_R2_B</title>
<polygon fill="#f8f9fa" stroke="#bdbdbd" stroke-width="1.5" points="743.4058,-150 663.7122,-150 663.7122,-114 743.4058,-114 743.4058,-150"/>
<text text-anchor="middle" x="703.559" y="-129" font-family="Helvetica,sans-Serif" font-size="10.00" fill="#000000">(v1_B &#45; p1 , 0)</text>
</g>
<!-- J2_B1&#45;&gt;G_R2_B -->
<g id="edge10" class="edge">
<title>J2_B1&#45;&gt;G_R2_B</title>
<path fill="none" stroke="#1976d2" stroke-width="1.6" d="M545.609,-236.0827C572.5503,-218.3294 629.7165,-180.6592 667.376,-155.8431"/>
<polygon fill="#1976d2" stroke="#1976d2" stroke-width="1.6" points="669.6074,-158.5644 676.0316,-150.1394 665.7557,-152.7193 669.6074,-158.5644"/>
<text text-anchor="middle" x="625.1685" y="-186" font-family="Helvetica,sans-Serif" font-size="10.00" fill="#000000">R</text>
</g>
<!-- G_R3_H -->
<g id="node12" class="node">
<title>G_R3_H</title>
<polygon fill="#f8f9fa" stroke="#bdbdbd" stroke-width="1.5" points="67.1771,-36 -.0591,-36 -.0591,0 67.1771,0 67.1771,-36"/>
<text text-anchor="middle" x="33.559" y="-15" font-family="Helvetica,sans-Serif" font-size="10.00" fill="#000000">(0 , v2 &#45; p2)</text>
</g>
<!-- J1_H2&#45;&gt;G_R3_H -->
<g id="edge12" class="edge">
<title>J1_H2&#45;&gt;G_R3_H</title>
<path fill="none" stroke="#1976d2" stroke-width="1.6" d="M170.0805,-121.0692C146.2285,-103.0617 98.1073,-66.7318 65.8497,-42.3784"/>
<polygon fill="#1976d2" stroke="#1976d2" stroke-width="1.6" points="67.7004,-39.3902 57.6106,-36.1582 63.4827,-44.9769 67.7004,-39.3902"/>
<text text-anchor="middle" x="118.1685" y="-72" font-family="Helvetica,sans-Serif" font-size="10.00" fill="#000000">R</text>
</g>
<!-- NEXT_H -->
<g id="node14" class="node">
<title>NEXT_H</title>
<polygon fill="#ffffff" stroke="transparent" stroke-width="1.5" points="264.7336,-36 182.3844,-36 182.3844,0 264.7336,0 264.7336,-36"/>
<text text-anchor="middle" x="223.559" y="-15" font-family="Helvetica,sans-Serif" font-size="10.00" fill="#000000">(v1_H &#45; p3 , ...)</text>
</g>
<!-- J1_H2&#45;&gt;NEXT_H -->
<g id="edge11" class="edge">
<title>J1_H2&#45;&gt;NEXT_H</title>
<path fill="none" stroke="#1976d2" stroke-width="1.6" d="M190.4823,-114.6859C196.7367,-96.4035 206.6906,-67.3077 214.0468,-45.8049"/>
<polygon fill="#1976d2" stroke="#1976d2" stroke-width="1.6" points="217.396,-46.8277 217.3214,-36.2331 210.7728,-44.5618 217.396,-46.8277"/>
<text text-anchor="middle" x="209.1685" y="-72" font-family="Helvetica,sans-Serif" font-size="10.00" fill="#000000">C</text>
</g>
<!-- G_R3_B -->
<g id="node13" class="node">
<title>G_R3_B</title>
<polygon fill="#f8f9fa" stroke="#bdbdbd" stroke-width="1.5" points="486.1771,-36 418.9409,-36 418.9409,0 486.1771,0 486.1771,-36"/>
<text text-anchor="middle" x="452.559" y="-15" font-family="Helvetica,sans-Serif" font-size="10.00" fill="#000000">(0 , v2 &#45; p2)</text>
</g>
<!-- J1_B2&#45;&gt;G_R3_B -->
<g id="edge14" class="edge">
<title>J1_B2&#45;&gt;G_R3_B</title>
<path fill="none" stroke="#1976d2" stroke-width="1.6" d="M519.205,-117.4972C511.4307,-107.4123 501.0014,-93.5747 492.34,-81 484.292,-69.3159 475.838,-56.0794 468.8032,-44.7655"/>
<polygon fill="#1976d2" stroke="#1976d2" stroke-width="1.6" points="471.7299,-42.8434 463.5005,-36.1705 465.7725,-46.5189 471.7299,-42.8434"/>
<text text-anchor="middle" x="495.1685" y="-72" font-family="Helvetica,sans-Serif" font-size="10.00" fill="#000000">R</text>
</g>
<!-- NEXT_B -->
<g id="node15" class="node">
<title>NEXT_B</title>
<polygon fill="#ffffff" stroke="transparent" stroke-width="1.5" points="683.6831,-36 601.4349,-36 601.4349,0 683.6831,0 683.6831,-36"/>
<text text-anchor="middle" x="642.559" y="-15" font-family="Helvetica,sans-Serif" font-size="10.00" fill="#000000">(v1_B &#45; p3 , ...)</text>
</g>
<!-- J1_B2&#45;&gt;NEXT_B -->
<g id="edge13" class="edge">
<title>J1_B2&#45;&gt;NEXT_B</title>
<path fill="none" stroke="#1976d2" stroke-width="1.6" d="M543.4068,-118.9228C561.4497,-100.5577 594.657,-66.7574 617.6408,-43.3632"/>
<polygon fill="#1976d2" stroke="#1976d2" stroke-width="1.6" points="620.2001,-45.7523 624.7117,-36.166 615.2067,-40.8465 620.2001,-45.7523"/>
<text text-anchor="middle" x="593.1685" y="-72" font-family="Helvetica,sans-Serif" font-size="10.00" fill="#000000">C</text>
</g>
</g>
</svg>

